%TF.GenerationSoftware,KiCad,Pcbnew,9.0.4*%
%TF.CreationDate,2025-10-02T18:18:41-04:00*%
%TF.ProjectId,PCB of Theseus,50434220-6f66-4205-9468-65736575732e,rev?*%
%TF.SameCoordinates,Original*%
%TF.FileFunction,Paste,Top*%
%TF.FilePolarity,Positive*%
%FSLAX46Y46*%
G04 Gerber Fmt 4.6, Leading zero omitted, Abs format (unit mm)*
G04 Created by KiCad (PCBNEW 9.0.4) date 2025-10-02 18:18:41*
%MOMM*%
%LPD*%
G01*
G04 APERTURE LIST*
G04 Aperture macros list*
%AMRoundRect*
0 Rectangle with rounded corners*
0 $1 Rounding radius*
0 $2 $3 $4 $5 $6 $7 $8 $9 X,Y pos of 4 corners*
0 Add a 4 corners polygon primitive as box body*
4,1,4,$2,$3,$4,$5,$6,$7,$8,$9,$2,$3,0*
0 Add four circle primitives for the rounded corners*
1,1,$1+$1,$2,$3*
1,1,$1+$1,$4,$5*
1,1,$1+$1,$6,$7*
1,1,$1+$1,$8,$9*
0 Add four rect primitives between the rounded corners*
20,1,$1+$1,$2,$3,$4,$5,0*
20,1,$1+$1,$4,$5,$6,$7,0*
20,1,$1+$1,$6,$7,$8,$9,0*
20,1,$1+$1,$8,$9,$2,$3,0*%
G04 Aperture macros list end*
%ADD10R,0.740000X2.400000*%
%ADD11RoundRect,0.150000X-0.825000X-0.150000X0.825000X-0.150000X0.825000X0.150000X-0.825000X0.150000X0*%
%ADD12RoundRect,0.250000X-0.337500X-0.475000X0.337500X-0.475000X0.337500X0.475000X-0.337500X0.475000X0*%
%ADD13RoundRect,0.250000X0.337500X0.475000X-0.337500X0.475000X-0.337500X-0.475000X0.337500X-0.475000X0*%
%ADD14RoundRect,0.250000X0.475000X-0.337500X0.475000X0.337500X-0.475000X0.337500X-0.475000X-0.337500X0*%
%ADD15RoundRect,0.092500X-1.607500X0.832500X-1.607500X-0.832500X1.607500X-0.832500X1.607500X0.832500X0*%
%ADD16RoundRect,0.250000X-0.450000X0.350000X-0.450000X-0.350000X0.450000X-0.350000X0.450000X0.350000X0*%
%ADD17RoundRect,0.250000X0.450000X-0.350000X0.450000X0.350000X-0.450000X0.350000X-0.450000X-0.350000X0*%
%ADD18RoundRect,0.250000X-0.350000X-0.450000X0.350000X-0.450000X0.350000X0.450000X-0.350000X0.450000X0*%
%ADD19RoundRect,0.250000X0.350000X0.450000X-0.350000X0.450000X-0.350000X-0.450000X0.350000X-0.450000X0*%
%ADD20RoundRect,0.162500X0.650000X0.162500X-0.650000X0.162500X-0.650000X-0.162500X0.650000X-0.162500X0*%
%ADD21RoundRect,0.250000X-0.475000X0.337500X-0.475000X-0.337500X0.475000X-0.337500X0.475000X0.337500X0*%
%ADD22RoundRect,0.100000X0.100000X-0.712500X0.100000X0.712500X-0.100000X0.712500X-0.100000X-0.712500X0*%
%ADD23RoundRect,0.225000X-0.225000X-0.375000X0.225000X-0.375000X0.225000X0.375000X-0.225000X0.375000X0*%
%ADD24RoundRect,0.237500X-0.287500X-0.237500X0.287500X-0.237500X0.287500X0.237500X-0.287500X0.237500X0*%
%ADD25RoundRect,0.250001X0.624999X-0.462499X0.624999X0.462499X-0.624999X0.462499X-0.624999X-0.462499X0*%
%ADD26RoundRect,0.150000X-0.150000X0.825000X-0.150000X-0.825000X0.150000X-0.825000X0.150000X0.825000X0*%
%ADD27RoundRect,0.237500X0.287500X0.237500X-0.287500X0.237500X-0.287500X-0.237500X0.287500X-0.237500X0*%
%ADD28RoundRect,0.250001X-0.462499X-0.624999X0.462499X-0.624999X0.462499X0.624999X-0.462499X0.624999X0*%
%ADD29RoundRect,0.162500X0.162500X-0.617500X0.162500X0.617500X-0.162500X0.617500X-0.162500X-0.617500X0*%
%ADD30RoundRect,0.150000X-0.150000X0.512500X-0.150000X-0.512500X0.150000X-0.512500X0.150000X0.512500X0*%
%ADD31RoundRect,0.237500X-0.237500X0.250000X-0.237500X-0.250000X0.237500X-0.250000X0.237500X0.250000X0*%
%ADD32RoundRect,0.075000X0.725000X0.075000X-0.725000X0.075000X-0.725000X-0.075000X0.725000X-0.075000X0*%
%ADD33RoundRect,0.075000X0.075000X0.725000X-0.075000X0.725000X-0.075000X-0.725000X0.075000X-0.725000X0*%
%ADD34RoundRect,0.362500X-0.637500X0.362500X-0.637500X-0.362500X0.637500X-0.362500X0.637500X0.362500X0*%
%ADD35R,1.500000X0.800000*%
G04 APERTURE END LIST*
D10*
%TO.C,J5*%
X122745000Y-62950000D03*
X122745000Y-66850000D03*
X121475000Y-62950000D03*
X121475000Y-66850000D03*
%TD*%
D11*
%TO.C,U2*%
X139290000Y-82290000D03*
X139290000Y-83560000D03*
X139290000Y-84830000D03*
X139290000Y-86100000D03*
X134340000Y-86100000D03*
X134340000Y-84830000D03*
X134340000Y-83560000D03*
X134340000Y-82290000D03*
%TD*%
D12*
%TO.C,C25*%
X145540000Y-86100000D03*
X143465000Y-86100000D03*
%TD*%
D13*
%TO.C,C6*%
X127890000Y-84850000D03*
X129965000Y-84850000D03*
%TD*%
D14*
%TO.C,C5*%
X101538501Y-44443500D03*
X101538501Y-46518500D03*
%TD*%
%TO.C,C4*%
X90788501Y-44493500D03*
X90788501Y-46568500D03*
%TD*%
D15*
%TO.C,L1*%
X90713501Y-55806000D03*
X90713501Y-50256000D03*
%TD*%
D14*
%TO.C,C3*%
X95988501Y-53793500D03*
X95988501Y-55868500D03*
%TD*%
D16*
%TO.C,R11*%
X95938501Y-50731000D03*
X95938501Y-48731000D03*
%TD*%
D14*
%TO.C,C24*%
X95913501Y-44468500D03*
X95913501Y-46543500D03*
%TD*%
D17*
%TO.C,R12*%
X101638501Y-48731000D03*
X101638501Y-50731000D03*
%TD*%
D18*
%TO.C,R23*%
X184640000Y-70457500D03*
X186640000Y-70457500D03*
%TD*%
D16*
%TO.C,R18*%
X188365000Y-93832500D03*
X188365000Y-95832500D03*
%TD*%
D18*
%TO.C,R3*%
X150075000Y-40375000D03*
X152075000Y-40375000D03*
%TD*%
D19*
%TO.C,R26*%
X185240000Y-84107500D03*
X183240000Y-84107500D03*
%TD*%
%TO.C,R47*%
X101137500Y-63000000D03*
X99137500Y-63000000D03*
%TD*%
D20*
%TO.C,U8*%
X123225000Y-48325000D03*
X123225000Y-47055000D03*
X123225000Y-45785000D03*
X123225000Y-44515000D03*
X116050000Y-44515000D03*
X116050000Y-45785000D03*
X116050000Y-47055000D03*
X116050000Y-48325000D03*
%TD*%
D17*
%TO.C,R21*%
X189290000Y-91707500D03*
X189290000Y-89707500D03*
%TD*%
D19*
%TO.C,R44*%
X122150000Y-55625000D03*
X120150000Y-55625000D03*
%TD*%
%TO.C,R27*%
X184140000Y-42150000D03*
X182140000Y-42150000D03*
%TD*%
%TO.C,R37*%
X178140000Y-84107500D03*
X176140000Y-84107500D03*
%TD*%
%TO.C,R6*%
X182115000Y-45500000D03*
X180115000Y-45500000D03*
%TD*%
D21*
%TO.C,C13*%
X140025000Y-64912500D03*
X140025000Y-66987500D03*
%TD*%
D14*
%TO.C,C19*%
X198400000Y-63875000D03*
X198400000Y-61800000D03*
%TD*%
D13*
%TO.C,C27*%
X158702500Y-78057500D03*
X156627500Y-78057500D03*
%TD*%
D12*
%TO.C,C21*%
X184640000Y-67182500D03*
X186715000Y-67182500D03*
%TD*%
%TO.C,C30*%
X163892500Y-62300000D03*
X165967500Y-62300000D03*
%TD*%
D22*
%TO.C,U12*%
X153340000Y-73170000D03*
X153990000Y-73170000D03*
X154640000Y-73170000D03*
X155290000Y-73170000D03*
X155290000Y-68945000D03*
X154640000Y-68945000D03*
X153990000Y-68945000D03*
X153340000Y-68945000D03*
%TD*%
D21*
%TO.C,C11*%
X144000000Y-64987500D03*
X144000000Y-67062500D03*
%TD*%
D13*
%TO.C,C7*%
X127537500Y-40400000D03*
X125462500Y-40400000D03*
%TD*%
D12*
%TO.C,C22*%
X153525000Y-52325000D03*
X155600000Y-52325000D03*
%TD*%
D18*
%TO.C,R7*%
X193390000Y-50375000D03*
X195390000Y-50375000D03*
%TD*%
D13*
%TO.C,C29*%
X154652500Y-78082500D03*
X152577500Y-78082500D03*
%TD*%
D23*
%TO.C,D5*%
X195565000Y-39775000D03*
X198865000Y-39775000D03*
%TD*%
D24*
%TO.C,D6*%
X114175000Y-52025000D03*
X115925000Y-52025000D03*
%TD*%
D25*
%TO.C,F1*%
X107487500Y-46600000D03*
X107487500Y-43625000D03*
%TD*%
D17*
%TO.C,R38*%
X179515000Y-76357500D03*
X179515000Y-74357500D03*
%TD*%
D13*
%TO.C,C33*%
X178240000Y-80807500D03*
X176165000Y-80807500D03*
%TD*%
D26*
%TO.C,U13*%
X168675000Y-40095000D03*
X167405000Y-40095000D03*
X166135000Y-40095000D03*
X164865000Y-40095000D03*
X164865000Y-45045000D03*
X166135000Y-45045000D03*
X167405000Y-45045000D03*
X168675000Y-45045000D03*
%TD*%
D13*
%TO.C,C28*%
X162852500Y-78082500D03*
X160777500Y-78082500D03*
%TD*%
D18*
%TO.C,R1*%
X129700000Y-40350000D03*
X131700000Y-40350000D03*
%TD*%
D19*
%TO.C,R45*%
X122200000Y-52250000D03*
X120200000Y-52250000D03*
%TD*%
D13*
%TO.C,C14*%
X130387500Y-43850000D03*
X128312500Y-43850000D03*
%TD*%
D19*
%TO.C,FB1*%
X151525000Y-49575000D03*
X149525000Y-49575000D03*
%TD*%
D27*
%TO.C,D4*%
X199040000Y-50375000D03*
X197290000Y-50375000D03*
%TD*%
D13*
%TO.C,C32*%
X107425000Y-54525000D03*
X105350000Y-54525000D03*
%TD*%
D22*
%TO.C,U11*%
X161990000Y-73095000D03*
X162640000Y-73095000D03*
X163290000Y-73095000D03*
X163940000Y-73095000D03*
X163940000Y-68870000D03*
X163290000Y-68870000D03*
X162640000Y-68870000D03*
X161990000Y-68870000D03*
%TD*%
D16*
%TO.C,R20*%
X197690000Y-92557500D03*
X197690000Y-94557500D03*
%TD*%
D13*
%TO.C,C36*%
X149962500Y-66575000D03*
X147887500Y-66575000D03*
%TD*%
D18*
%TO.C,R22*%
X195140000Y-85332500D03*
X197140000Y-85332500D03*
%TD*%
D19*
%TO.C,R25*%
X178140000Y-87557500D03*
X176140000Y-87557500D03*
%TD*%
%TO.C,R29*%
X161640000Y-86932500D03*
X159640000Y-86932500D03*
%TD*%
D21*
%TO.C,C18*%
X197150000Y-54175000D03*
X197150000Y-56250000D03*
%TD*%
D27*
%TO.C,D3*%
X187690000Y-50150000D03*
X185940000Y-50150000D03*
%TD*%
D13*
%TO.C,C23*%
X185315000Y-80882500D03*
X183240000Y-80882500D03*
%TD*%
D28*
%TO.C,D2*%
X113650000Y-55475000D03*
X116625000Y-55475000D03*
%TD*%
D29*
%TO.C,U1*%
X99738501Y-56506000D03*
X100688501Y-56506000D03*
X101638501Y-56506000D03*
X101638501Y-53806000D03*
X100688501Y-53806000D03*
X99738501Y-53806000D03*
%TD*%
D21*
%TO.C,C9*%
X126675000Y-63787500D03*
X126675000Y-65862500D03*
%TD*%
D19*
%TO.C,R31*%
X160540000Y-82907500D03*
X158540000Y-82907500D03*
%TD*%
%TO.C,R5*%
X193390000Y-45550000D03*
X191390000Y-45550000D03*
%TD*%
D30*
%TO.C,Q1*%
X187765000Y-42125000D03*
X185865000Y-42125000D03*
X186815000Y-44400000D03*
%TD*%
D22*
%TO.C,U4*%
X182640000Y-77245000D03*
X183290000Y-77245000D03*
X183940000Y-77245000D03*
X184590000Y-77245000D03*
X184590000Y-73020000D03*
X183940000Y-73020000D03*
X183290000Y-73020000D03*
X182640000Y-73020000D03*
%TD*%
D14*
%TO.C,C12*%
X150775000Y-56400000D03*
X150775000Y-54325000D03*
%TD*%
D18*
%TO.C,R32*%
X154665000Y-82907500D03*
X156665000Y-82907500D03*
%TD*%
D19*
%TO.C,R30*%
X154565000Y-87107500D03*
X152565000Y-87107500D03*
%TD*%
D13*
%TO.C,C16*%
X101187500Y-68300000D03*
X99112500Y-68300000D03*
%TD*%
D31*
%TO.C,TH1*%
X188165000Y-98232500D03*
X188165000Y-100057500D03*
%TD*%
D18*
%TO.C,R2*%
X139850000Y-40375000D03*
X141850000Y-40375000D03*
%TD*%
D21*
%TO.C,C10*%
X154125000Y-54300000D03*
X154125000Y-56375000D03*
%TD*%
D16*
%TO.C,R19*%
X197665000Y-88707500D03*
X197665000Y-90707500D03*
%TD*%
D19*
%TO.C,R28*%
X195390000Y-42050000D03*
X193390000Y-42050000D03*
%TD*%
D30*
%TO.C,Q2*%
X199027500Y-42012500D03*
X197127500Y-42012500D03*
X198077500Y-44287500D03*
%TD*%
D12*
%TO.C,C17*%
X157137500Y-49525000D03*
X159212500Y-49525000D03*
%TD*%
D18*
%TO.C,R24*%
X183215000Y-88682500D03*
X185215000Y-88682500D03*
%TD*%
%TO.C,R4*%
X182115000Y-50150000D03*
X184115000Y-50150000D03*
%TD*%
D12*
%TO.C,C31*%
X155265000Y-62307500D03*
X157340000Y-62307500D03*
%TD*%
D18*
%TO.C,R34*%
X163965000Y-65832500D03*
X165965000Y-65832500D03*
%TD*%
D17*
%TO.C,R35*%
X150065000Y-72032500D03*
X150065000Y-70032500D03*
%TD*%
D18*
%TO.C,R36*%
X155290000Y-65907500D03*
X157290000Y-65907500D03*
%TD*%
D13*
%TO.C,C1*%
X107425000Y-50825000D03*
X105350000Y-50825000D03*
%TD*%
%TO.C,C37*%
X192787500Y-84825000D03*
X190712500Y-84825000D03*
%TD*%
%TO.C,C35*%
X160487500Y-40125000D03*
X158412500Y-40125000D03*
%TD*%
D17*
%TO.C,R33*%
X158665000Y-72182500D03*
X158665000Y-70182500D03*
%TD*%
D13*
%TO.C,C38*%
X161787500Y-65250000D03*
X159712500Y-65250000D03*
%TD*%
D32*
%TO.C,U6*%
X146975000Y-59550000D03*
X146975000Y-59050000D03*
X146975000Y-58550000D03*
X146975000Y-58050000D03*
X146975000Y-57550000D03*
X146975000Y-57050000D03*
X146975000Y-56550000D03*
X146975000Y-56050000D03*
X146975000Y-55550000D03*
X146975000Y-55050000D03*
X146975000Y-54550000D03*
X146975000Y-54050000D03*
X146975000Y-53550000D03*
X146975000Y-53050000D03*
X146975000Y-52550000D03*
X146975000Y-52050000D03*
X146975000Y-51550000D03*
X146975000Y-51050000D03*
X146975000Y-50550000D03*
X146975000Y-50050000D03*
X146975000Y-49550000D03*
X146975000Y-49050000D03*
X146975000Y-48550000D03*
X146975000Y-48050000D03*
X146975000Y-47550000D03*
D33*
X145300000Y-45875000D03*
X144800000Y-45875000D03*
X144300000Y-45875000D03*
X143800000Y-45875000D03*
X143300000Y-45875000D03*
X142800000Y-45875000D03*
X142300000Y-45875000D03*
X141800000Y-45875000D03*
X141300000Y-45875000D03*
X140800000Y-45875000D03*
X140300000Y-45875000D03*
X139800000Y-45875000D03*
X139300000Y-45875000D03*
X138800000Y-45875000D03*
X138300000Y-45875000D03*
X137800000Y-45875000D03*
X137300000Y-45875000D03*
X136800000Y-45875000D03*
X136300000Y-45875000D03*
X135800000Y-45875000D03*
X135300000Y-45875000D03*
X134800000Y-45875000D03*
X134300000Y-45875000D03*
X133800000Y-45875000D03*
X133300000Y-45875000D03*
D32*
X131625000Y-47550000D03*
X131625000Y-48050000D03*
X131625000Y-48550000D03*
X131625000Y-49050000D03*
X131625000Y-49550000D03*
X131625000Y-50050000D03*
X131625000Y-50550000D03*
X131625000Y-51050000D03*
X131625000Y-51550000D03*
X131625000Y-52050000D03*
X131625000Y-52550000D03*
X131625000Y-53050000D03*
X131625000Y-53550000D03*
X131625000Y-54050000D03*
X131625000Y-54550000D03*
X131625000Y-55050000D03*
X131625000Y-55550000D03*
X131625000Y-56050000D03*
X131625000Y-56550000D03*
X131625000Y-57050000D03*
X131625000Y-57550000D03*
X131625000Y-58050000D03*
X131625000Y-58550000D03*
X131625000Y-59050000D03*
X131625000Y-59550000D03*
D33*
X133300000Y-61225000D03*
X133800000Y-61225000D03*
X134300000Y-61225000D03*
X134800000Y-61225000D03*
X135300000Y-61225000D03*
X135800000Y-61225000D03*
X136300000Y-61225000D03*
X136800000Y-61225000D03*
X137300000Y-61225000D03*
X137800000Y-61225000D03*
X138300000Y-61225000D03*
X138800000Y-61225000D03*
X139300000Y-61225000D03*
X139800000Y-61225000D03*
X140300000Y-61225000D03*
X140800000Y-61225000D03*
X141300000Y-61225000D03*
X141800000Y-61225000D03*
X142300000Y-61225000D03*
X142800000Y-61225000D03*
X143300000Y-61225000D03*
X143800000Y-61225000D03*
X144300000Y-61225000D03*
X144800000Y-61225000D03*
X145300000Y-61225000D03*
%TD*%
D13*
%TO.C,C39*%
X179312500Y-70650000D03*
X177237500Y-70650000D03*
%TD*%
D22*
%TO.C,U3*%
X193215000Y-92945000D03*
X193865000Y-92945000D03*
X194515000Y-92945000D03*
X195165000Y-92945000D03*
X195165000Y-88720000D03*
X194515000Y-88720000D03*
X193865000Y-88720000D03*
X193215000Y-88720000D03*
%TD*%
D12*
%TO.C,C20*%
X195090000Y-81782500D03*
X197165000Y-81782500D03*
%TD*%
D23*
%TO.C,D1*%
X184315000Y-39950000D03*
X187615000Y-39950000D03*
%TD*%
D13*
%TO.C,C34*%
X176165000Y-77182500D03*
X174090000Y-77182500D03*
%TD*%
D12*
%TO.C,C15*%
X149762500Y-44550000D03*
X151837500Y-44550000D03*
%TD*%
D13*
%TO.C,C2*%
X107462500Y-58350000D03*
X105387500Y-58350000D03*
%TD*%
D19*
%TO.C,R46*%
X107487500Y-63000000D03*
X105487500Y-63000000D03*
%TD*%
D34*
%TO.C,J6*%
X108871800Y-84656000D03*
X117171800Y-84656000D03*
X108871800Y-70906000D03*
X117171800Y-70906000D03*
D35*
X114571800Y-82276000D03*
X114571800Y-81176000D03*
X114571800Y-80076000D03*
X114571800Y-78976000D03*
X114571800Y-77876000D03*
X114571800Y-76776000D03*
X114571800Y-75676000D03*
X114571800Y-74576000D03*
%TD*%
M02*
