%TF.GenerationSoftware,KiCad,Pcbnew,9.0.4*%
%TF.CreationDate,2025-10-02T19:06:12-04:00*%
%TF.ProjectId,PCB of Theseus,50434220-6f66-4205-9468-65736575732e,rev?*%
%TF.SameCoordinates,Original*%
%TF.FileFunction,Soldermask,Bot*%
%TF.FilePolarity,Negative*%
%FSLAX46Y46*%
G04 Gerber Fmt 4.6, Leading zero omitted, Abs format (unit mm)*
G04 Created by KiCad (PCBNEW 9.0.4) date 2025-10-02 19:06:12*
%MOMM*%
%LPD*%
G01*
G04 APERTURE LIST*
G04 Aperture macros list*
%AMRoundRect*
0 Rectangle with rounded corners*
0 $1 Rounding radius*
0 $2 $3 $4 $5 $6 $7 $8 $9 X,Y pos of 4 corners*
0 Add a 4 corners polygon primitive as box body*
4,1,4,$2,$3,$4,$5,$6,$7,$8,$9,$2,$3,0*
0 Add four circle primitives for the rounded corners*
1,1,$1+$1,$2,$3*
1,1,$1+$1,$4,$5*
1,1,$1+$1,$6,$7*
1,1,$1+$1,$8,$9*
0 Add four rect primitives between the rounded corners*
20,1,$1+$1,$2,$3,$4,$5,0*
20,1,$1+$1,$4,$5,$6,$7,0*
20,1,$1+$1,$6,$7,$8,$9,0*
20,1,$1+$1,$8,$9,$2,$3,0*%
G04 Aperture macros list end*
%ADD10C,4.300000*%
%ADD11RoundRect,0.250001X-0.949999X0.949999X-0.949999X-0.949999X0.949999X-0.949999X0.949999X0.949999X0*%
%ADD12C,2.400000*%
%ADD13RoundRect,0.250001X-0.949999X-0.949999X0.949999X-0.949999X0.949999X0.949999X-0.949999X0.949999X0*%
%ADD14RoundRect,0.250000X0.337500X0.475000X-0.337500X0.475000X-0.337500X-0.475000X0.337500X-0.475000X0*%
%ADD15RoundRect,0.250000X-0.350000X-0.450000X0.350000X-0.450000X0.350000X0.450000X-0.350000X0.450000X0*%
%ADD16RoundRect,0.250000X-0.475000X0.337500X-0.475000X-0.337500X0.475000X-0.337500X0.475000X0.337500X0*%
G04 APERTURE END LIST*
D10*
%TO.C,H6*%
X93350000Y-93675000D03*
%TD*%
D11*
%TO.C,J8*%
X205775000Y-54450000D03*
D12*
X205775000Y-59530000D03*
X205775000Y-64610000D03*
X205775000Y-69690000D03*
X205775000Y-74770000D03*
X205775000Y-79850000D03*
%TD*%
D13*
%TO.C,J2*%
X128925000Y-95600000D03*
D12*
X134005000Y-95600000D03*
X139085000Y-95600000D03*
X144165000Y-95600000D03*
%TD*%
D13*
%TO.C,J11*%
X154575000Y-95600000D03*
D12*
X159655000Y-95600000D03*
%TD*%
D13*
%TO.C,J7*%
X102395000Y-31050000D03*
D12*
X107475000Y-31050000D03*
%TD*%
D13*
%TO.C,J4*%
X124610000Y-31000000D03*
D12*
X129690000Y-31000000D03*
X134770000Y-31000000D03*
X139850000Y-31000000D03*
X144930000Y-31000000D03*
X150010000Y-31000000D03*
%TD*%
D10*
%TO.C,H8*%
X208350000Y-93675000D03*
%TD*%
%TO.C,H5*%
X93350000Y-33675000D03*
%TD*%
D13*
%TO.C,J1*%
X182665000Y-31325000D03*
D12*
X187745000Y-31325000D03*
X192825000Y-31325000D03*
X197905000Y-31325000D03*
%TD*%
D10*
%TO.C,H7*%
X208350000Y-33675000D03*
%TD*%
D13*
%TO.C,J12*%
X164270000Y-31175000D03*
D12*
X169350000Y-31175000D03*
%TD*%
D13*
%TO.C,J3*%
X178150000Y-95225000D03*
D12*
X183230000Y-95225000D03*
%TD*%
D14*
%TO.C,C8*%
X127262500Y-58875000D03*
X125187500Y-58875000D03*
%TD*%
D15*
%TO.C,R17*%
X108525000Y-83325000D03*
X110525000Y-83325000D03*
%TD*%
D16*
%TO.C,C26*%
X120850000Y-78362500D03*
X120850000Y-80437500D03*
%TD*%
D15*
%TO.C,R15*%
X108450000Y-76725000D03*
X110450000Y-76725000D03*
%TD*%
%TO.C,R13*%
X108575000Y-70125000D03*
X110575000Y-70125000D03*
%TD*%
%TO.C,R16*%
X108525000Y-80075000D03*
X110525000Y-80075000D03*
%TD*%
%TO.C,R14*%
X108500000Y-73450000D03*
X110500000Y-73450000D03*
%TD*%
M02*
