M48
; DRILL file {KiCad 9.0.4} date 2025-10-02T19:06:15-0400
; FORMAT={-:-/ absolute / inch / decimal}
; #@! TF.CreationDate,2025-10-02T19:06:15-04:00
; #@! TF.GenerationSoftware,Kicad,Pcbnew,9.0.4
; #@! TF.FileFunction,Plated,1,2,PTH
FMAT,2
INCH
; #@! TA.AperFunction,Plated,PTH,ViaDrill
T1C0.0118
; #@! TA.AperFunction,Plated,PTH,ComponentDrill
T2C0.0630
%
G90
G05
T1
X3.6634Y-1.8888
X3.7008Y-2.6102
X4.0709Y-2.689
X4.4138Y-3.2003
X4.4281Y-3.248
X4.4419Y-2.937
X4.442Y-3.0227
X4.4498Y-2.9793
X4.4793Y-1.9055
X4.5404Y-1.5098
X4.6294Y-3.0655
X4.6703Y-3.1742
X4.6909Y-1.7736
X4.7062Y-2.7082
X4.8455Y-2.3642
X4.9931Y-1.6752
X5.0802Y-2.5517
X5.0866Y-2.3189
X5.0945Y-2.378
X5.1014Y-2.4252
X5.1732Y-2.6909
X5.2047Y-1.7628
X5.2431Y-1.6604
X5.2549Y-1.7451
X5.2717Y-1.8898
X5.5256Y-2.4951
X5.5719Y-3.3898
X5.5748Y-1.1004
X5.5846Y-1.5276
X5.6526Y-2.3504
X5.7205Y-2.502
X5.7648Y-2.4242
X5.7913Y-1.7628
X5.8676Y-2.2318
X5.9429Y-2.0394
X6.0049Y-2.6427
X6.0305Y-2.9685
X6.0679Y-2.8041
X6.0827Y-1.9518
X6.1211Y-1.5896
X6.3327Y-1.8307
X6.3356Y-1.9311
X6.3932Y-2.6393
X6.4065Y-1.5785
X6.4469Y-3.4124
X6.6083Y-1.6673
X7.1043Y-1.7136
X7.1545Y-2.8031
X7.1565Y-3.4163
X7.251Y-1.748
X7.3829Y-3.5778
X7.5901Y-3.4114
X7.8612Y-3.4921
X7.9203Y-2.1506
X7.9628Y-2.6051
T2
X4.0313Y-1.2224
X4.2313Y-1.2224
X4.9059Y-1.2205
X5.0758Y-3.7638
X5.1059Y-1.2205
X5.2758Y-3.7638
X5.3059Y-1.2205
X5.4758Y-3.7638
X5.5059Y-1.2205
X5.6758Y-3.7638
X5.7059Y-1.2205
X5.9059Y-1.2205
X6.0856Y-3.7638
X6.2856Y-3.7638
X6.4673Y-1.2274
X6.6673Y-1.2274
X7.0138Y-3.749
X7.1915Y-1.2333
X7.2138Y-3.749
X7.3915Y-1.2333
X7.5915Y-1.2333
X7.7915Y-1.2333
X8.1014Y-2.1437
X8.1014Y-2.3437
X8.1014Y-2.5437
X8.1014Y-2.7437
X8.1014Y-2.9437
X8.1014Y-3.1437
M30
